<?xml version="1.0" encoding="UTF-8"?><svg id="_レイヤー_2" xmlns="http://www.w3.org/2000/svg" viewBox="0 0 840.89 522.11"><defs><style>.cls-1,.cls-2{fill:none;}.cls-1,.cls-2,.cls-3,.cls-4{stroke:#f7f7f7;stroke-miterlimit:10;}.cls-1,.cls-2,.cls-4{stroke-width:25px;}.cls-1,.cls-3,.cls-4{stroke-linecap:round;}.cls-3{stroke-width:23px;}.cls-3,.cls-4{fill:#f7f7f7;}</style></defs><g id="_レイヤー_1-2"><line class="cls-4" x1="420.3" y1="315.05" x2="420.3" y2="191.04"/><circle class="cls-2" cx="74.51" cy="253.05" r="62.01"/><circle class="cls-2" cx="328.91" cy="253.05" r="62.01"/><circle class="cls-2" cx="564.31" cy="253.05" r="62.01"/><path class="cls-1" d="M828.39,283.05c-10.57,19.08-30.92,32-54.28,32-34.24,0-62.01-27.76-62.01-62.01s27.76-62.01,62.01-62.01c23.36,0,43.71,12.92,54.28,32.01"/><line class="cls-4" x1="166.86" y1="315.05" x2="166.86" y2="12.5"/><line class="cls-4" x1="218.51" y1="315.05" x2="218.51" y2="139.91"/><line class="cls-3" x1="218.51" y1="81.7" x2="218.51" y2="65.81"/><line class="cls-4" x1="669.4" y1="315.05" x2="669.4" y2="139.91"/><line class="cls-3" x1="669.4" y1="81.7" x2="669.4" y2="65.81"/><line class="cls-4" x1="472.76" y1="509.61" x2="472.76" y2="191.04"/></g></svg>